<svg width="72" height="14" viewBox="0 0 72 14" fill="none" xmlns="http://www.w3.org/2000/svg">
<g clip-path="url(#clip0_67_188)">
<path fill-rule="evenodd" clip-rule="evenodd" d="M47.4526 7.71084C47.4953 7.99084 47.5166 8.20622 47.5806 8.42161C48.0498 10.4247 49.6066 11.7601 51.6327 11.9324C53.4242 12.0831 54.8318 11.3939 55.8768 9.90776C56.3886 9.19699 57.2204 9.06776 57.8815 9.6493C58.2654 9.97238 58.3081 10.4031 58.0095 10.8124C57.8389 11.0278 57.6896 11.2431 57.519 11.4801C56.8365 12.4278 55.9408 13.0739 54.8318 13.4616C53.0403 14.0862 51.2488 14.1724 49.4787 13.5047C47.0901 12.6216 45.6825 10.8555 45.2773 8.33546C45.0427 6.78469 45.1919 5.23392 45.8957 3.83392C46.9194 1.83084 48.519 0.603149 50.737 0.236995C52.2085 7.18832e-05 53.6588 0.150841 55.0237 0.818533C56.9645 1.74469 58.1375 3.31699 58.5853 5.40623C58.7133 5.98776 58.7559 6.5693 58.7986 7.15084C58.8413 7.51699 58.6706 7.66776 58.3081 7.6893C58.1375 7.6893 57.9882 7.6893 57.8176 7.6893C54.5119 7.6893 51.2062 7.6893 47.9218 7.6893C47.7725 7.71084 47.6659 7.71084 47.4526 7.71084ZM56.4739 5.51392C56.1967 3.64007 53.9574 2.00315 51.8886 2.13238C49.7346 2.26161 47.6019 3.92007 47.5166 5.51392C50.4811 5.51392 53.4882 5.51392 56.4739 5.51392Z" fill="#B1B1B1"/>
<path fill-rule="evenodd" clip-rule="evenodd" d="M30.519 7.64608C30.5403 7.83993 30.5616 7.96916 30.5829 8.11993C30.9881 10.3384 32.7796 11.8676 34.9976 11.9107C36.6825 11.9322 37.9834 11.243 38.9644 9.86454C39.4763 9.13224 40.3934 9.04608 41.0332 9.69224C41.3317 10.0153 41.3957 10.403 41.0971 10.7907C40.9692 10.9845 40.8412 11.1569 40.6919 11.3076C39.9668 12.3845 38.9644 13.0738 37.7488 13.483C35.9573 14.0861 34.1659 14.1292 32.4384 13.4399C29.9645 12.4707 28.5782 10.5538 28.2796 7.883C28.1303 6.5907 28.2583 5.34147 28.7915 4.15685C29.8365 1.91685 31.5213 0.538388 33.9739 0.215311C35.2749 0.0430031 36.5758 0.150695 37.7701 0.64608C39.9455 1.5507 41.2038 3.25223 41.6943 5.55685C41.7796 6.07377 41.8436 6.63377 41.8649 7.1507C41.8862 7.58147 41.8009 7.66762 41.3531 7.66762C40.5853 7.66762 39.7749 7.66762 38.9858 7.66762C36.3412 7.66762 33.6967 7.66762 31.0948 7.66762C30.9028 7.64608 30.7322 7.64608 30.519 7.64608ZM39.5829 5.44916C39.3057 3.59685 37.1303 2.02454 34.9976 2.06762C32.9289 2.1107 30.7749 3.7907 30.6043 5.44916C33.59 5.44916 36.5545 5.44916 39.5829 5.44916Z" fill="#B1B1B1"/>
<path fill-rule="evenodd" clip-rule="evenodd" d="M67.628 8.63728C67.7986 8.78805 67.8839 8.8742 67.9905 8.96036C69.1422 9.95113 70.2939 10.9419 71.4242 11.9327C71.4882 11.9973 71.5948 12.0834 71.6588 12.1481C72.0853 12.5788 72.128 13.2034 71.7228 13.6342C71.3389 14.065 70.7417 14.1296 70.2939 13.7634C69.4834 13.0957 68.7157 12.4065 67.9266 11.7388C66.7962 10.7696 65.6872 9.80036 64.5569 8.83113C64.4716 8.74497 64.3436 8.65882 64.173 8.52959C64.173 8.76651 64.1517 8.91728 64.1517 9.06805C64.1517 11.8034 64.1517 9.75728 64.1517 12.4927C64.1517 12.6219 64.1517 12.7511 64.1517 12.8804C64.109 13.4834 63.6611 13.9142 63.064 13.8711C62.4882 13.8496 62.1043 13.4188 62.0829 12.8157C62.0829 12.6865 62.0829 12.5573 62.0829 12.4281C62.0829 7.0219 62.0829 6.39728 62.0829 0.991127C62.0829 0.818819 62.0829 0.66805 62.0829 0.495743C62.0829 0.10805 62.1256 0.0434348 62.4882 0.0434348C62.9787 0.0218963 63.4692 0.0218963 63.9597 0.0218963C65.1327 0.0218963 66.3484 0.0649733 67.5213 0.000357877C69.5048 -0.085796 71.7228 1.52959 71.936 3.87728C72.128 5.98805 70.6991 7.99113 68.5664 8.4219C68.2891 8.48651 67.9905 8.57267 67.628 8.63728ZM64.0237 6.97882C64.1517 7.00036 64.237 7.00036 64.301 7.00036C65.282 7.00036 66.2844 7.00036 67.2654 7.00036C67.5427 7.00036 67.8412 6.97882 68.1185 6.87113C69.0356 6.59113 69.7607 6.03113 69.9953 5.04036C70.4005 3.33882 69.1422 1.78805 67.4147 1.78805C66.391 1.78805 65.3886 1.78805 64.3436 1.78805C64.2157 1.78805 64.109 1.80959 63.9811 1.80959C64.0237 3.53267 64.0237 5.2342 64.0237 6.97882Z" fill="#B1B1B1"/>
<path fill-rule="evenodd" clip-rule="evenodd" d="M22.8412 7.6678C20.8792 7.6678 18.9811 7.6678 17.0403 7.6678C17.0403 7.84011 17.019 7.99088 17.019 8.14165C17.019 9.64934 17.019 11.1355 17.019 12.6432C17.019 12.837 17.019 13.0309 16.9763 13.1817C16.827 13.634 16.3578 13.914 15.91 13.8924C15.4194 13.8493 15.0142 13.4616 14.9503 12.9663C14.9289 12.837 14.9503 12.7293 14.9503 12.6001C14.9503 7.23704 14.9289 6.59088 14.9289 1.24934C14.9289 1.03396 14.9503 0.818575 15.0142 0.624729C15.1848 0.172422 15.654 -0.0860398 16.1446 -0.0214244C16.5924 0.0431909 16.9763 0.430883 17.019 0.904729C17.0403 1.0555 17.019 1.18473 17.019 1.3355C17.019 4.09242 17.0403 2.13242 17.0403 4.88934C17.0403 5.06165 17.0616 5.21242 17.0616 5.36319C17.4242 5.44934 22.4574 5.44934 22.8412 5.36319C22.8412 5.23396 22.8626 5.10473 22.8626 4.95396C22.8626 3.74781 22.8626 2.52011 22.8626 1.31396C22.8626 1.18473 22.8626 1.07704 22.8626 0.947806C22.9052 0.409345 23.3104 0.000114035 23.8436 -0.0214244C24.3768 -0.0429629 24.8673 0.366268 24.9313 0.904729C24.9526 1.03396 24.9313 1.14165 24.9313 1.27088C24.9313 5.04011 24.9313 8.7878 24.9313 12.557C24.9313 12.6863 24.9313 12.794 24.9313 12.9232C24.8673 13.4616 24.3981 13.8924 23.8649 13.8709C23.3318 13.8493 22.9052 13.4186 22.8412 12.8801C22.8412 12.7509 22.8412 12.6432 22.8412 12.514C22.8412 11.0709 22.8412 9.58473 22.8412 8.14165C22.8412 8.01242 22.8412 7.86165 22.8412 7.6678Z" fill="#B1B1B1"/>
<path fill-rule="evenodd" clip-rule="evenodd" d="M5.86493 13.9785C4.47868 13.957 3.17773 13.6554 1.98342 12.9231C1.47157 12.6216 1.00237 12.2339 0.618487 11.7816C0.426544 11.5447 0.191947 11.3077 0.106639 11.0062C-0.0213233 10.6185 -0.0426503 10.1877 0.319909 9.84313C0.725122 9.45544 1.27962 9.30467 1.83413 9.67082C2.3673 10.0585 2.62323 10.5539 3.07109 11.0062C3.7109 11.6524 4.54266 11.997 5.43839 12.1047C6.27015 12.1908 7.08057 12.1693 7.891 11.8893C8.2109 11.7601 8.55214 11.6093 8.82939 11.3939C9.34124 10.8124 9.49052 9.9939 8.87204 9.4339C8.57346 9.17544 8.18958 8.98159 7.80569 8.80928C6.8673 8.40005 5.88626 8.12005 4.90522 7.86159C4.09479 7.66775 3.32702 7.40928 2.51659 7.17236C2.21801 7.08621 1.91943 6.9139 1.64218 6.76313C0.895738 6.3539 0.469198 5.70775 0.341236 4.88928C0.106639 3.18775 0.725122 1.65852 2.19669 0.904669C4.5 -0.236869 6.88863 -0.129177 9.19195 1.18467C9.61849 1.42159 10.0237 1.78775 10.3863 2.11082C10.6635 2.34775 10.8768 2.69236 10.9834 3.05852C11.0901 3.51082 10.8768 3.98467 10.3223 4.1139C9.85308 4.22159 9.42654 4.07082 9.08531 3.70467C9.02133 3.64005 8.95735 3.5539 8.91469 3.48928C8.38152 2.67082 7.59242 2.21852 6.65403 2.04621C5.71564 1.8739 4.77725 1.89544 3.88152 2.26159C3.56161 2.39082 3.22038 2.56313 2.96446 2.80005C2.58057 3.31698 2.43128 4.00621 2.94313 4.65236C3.34834 5.04005 3.81754 5.25544 4.32939 5.36313C5.45972 5.64313 6.61138 5.94467 7.74171 6.22467C8.46683 6.41852 9.17062 6.65544 9.83176 7.04313C10.6848 7.49544 11.3033 8.16313 11.5166 9.13236C11.7725 10.317 11.5166 11.437 10.5995 12.2985C9.55451 13.2462 8.36019 13.7631 6.97394 13.9139C6.59005 13.957 6.20616 13.957 5.86493 13.9785Z" fill="#B1B1B1"/>
</g>
<defs>
<clipPath id="clip0_67_188">
<rect width="72" height="14" fill="white"/>
</clipPath>
</defs>
</svg>
