<svg width="45" height="47" viewBox="0 0 45 47" fill="none" xmlns="http://www.w3.org/2000/svg">
<path fill-rule="evenodd" clip-rule="evenodd" d="M13.0304 0.0947979C8.6672 0.65267 4.84052 3.66083 3.17933 7.83871C2.55919 9.39847 2.28051 10.9425 2.28051 12.8192V13.8546H3.17307H4.06553L3.88129 14.6579C3.61522 15.818 3.62184 18.1431 3.89453 19.3436C4.49652 21.9941 5.95406 24.2569 8.11183 25.8911C8.50001 26.1851 8.80617 26.4574 8.7922 26.4962C8.77814 26.5349 8.48549 26.7031 8.14177 26.8698C7.79805 27.0364 7.1653 27.4048 6.73567 27.6882C3.3301 29.935 1.10882 33.2468 0.272239 37.3254C0.0801023 38.2621 0.0654063 38.59 0.0337464 42.6617L0 47H14.6116H29.2232V46.3114C29.2232 45.9326 29.2448 45.6228 29.2712 45.6228C29.2975 45.6228 29.564 45.7479 29.8633 45.9008C31.6791 46.8285 33.949 47.1845 36.0273 46.8673C38.2367 46.5303 40.1047 45.5982 41.7236 44.0252C42.6568 43.1183 43.2513 42.3304 43.7806 41.2986C45.3727 38.1951 45.4069 34.7447 43.8766 31.6209C43.2802 30.4036 42.733 29.6545 41.7236 28.6736C40.8087 27.7846 40.1081 27.2912 38.9951 26.7521C35.6402 25.1267 31.8723 25.3997 28.6524 27.5015C27.9295 27.9733 26.5953 29.2475 26.0872 29.9513L25.7306 30.4453L24.7517 29.4979C23.7092 28.4889 22.2637 27.446 21.1495 26.8989C20.7753 26.7152 20.4577 26.5335 20.4436 26.4953C20.4296 26.457 20.7358 26.1854 21.124 25.8916C23.2992 24.2459 24.8057 21.8682 25.3767 19.1799C25.6165 18.051 25.6049 15.7567 25.3538 14.6579L25.1703 13.8546H26.0754H26.9807L26.9306 12.3626C26.903 11.542 26.8139 10.5285 26.7325 10.1102C25.9432 6.0573 23.2077 2.64085 19.4332 0.993857C17.4913 0.14649 15.1725 -0.179088 13.0304 0.0947979ZM16.9873 3.05209C18.7437 3.50905 20.1164 4.32667 21.467 5.72007C22.4386 6.72269 23.0429 7.63387 23.5189 8.81462C23.7462 9.37855 24.1401 10.7787 24.1425 11.0312C24.1428 11.0691 19.8568 11.1001 14.6179 11.1001C9.2623 11.1001 5.09271 11.065 5.09271 11.02C5.09271 10.9761 5.19105 10.5476 5.31125 10.068C5.75176 8.31055 6.56531 6.91165 7.94156 5.54525C9.27617 4.22026 10.5913 3.47251 12.3596 3.03336C13.4037 2.77407 13.5875 2.7569 14.9354 2.79326C15.8138 2.81695 16.3374 2.88296 16.9873 3.05209ZM12.9842 13.9234C12.9818 14.11 12.3786 15.0243 12.0344 15.3629C11.5531 15.8363 10.7365 16.2807 10.1003 16.4154C9.40417 16.5628 6.36255 16.5523 6.36328 16.4024C6.36464 16.1089 6.55968 15.1291 6.73721 14.5237L6.93343 13.8546H9.95927C11.6235 13.8546 12.9846 13.8856 12.9842 13.9234ZM22.3288 13.8991C22.3288 13.9236 22.4252 14.2851 22.5431 14.7025C22.6611 15.1199 22.7839 15.699 22.8161 15.9893L22.8746 16.5172H21.2454C20.3493 16.5172 19.3999 16.4714 19.1355 16.4154C18.0814 16.1922 16.9394 15.3278 16.4762 14.4028C16.3522 14.1551 16.2508 13.9305 16.2508 13.9035C16.2508 13.8766 17.6183 13.8546 19.2898 13.8546C20.9612 13.8546 22.3288 13.8746 22.3288 13.8991ZM15.2672 17.2747C15.9897 17.987 16.6381 18.4201 17.524 18.7823C18.4678 19.1681 19.1634 19.2684 20.9098 19.2701L22.5299 19.2717L22.4709 19.5242C22.3716 19.9494 21.708 21.293 21.3529 21.7878C20.2015 23.3925 18.5418 24.5529 16.659 25.0697C15.6185 25.3554 13.6155 25.3552 12.5768 25.0693C10.7446 24.5649 9.09919 23.441 8.00379 21.9455C7.55837 21.3374 6.87873 20.012 6.76751 19.5347L6.71118 19.2928L8.6007 19.253C10.4251 19.2146 10.5186 19.2034 11.3112 18.929C12.4314 18.5413 13.1653 18.0838 13.9282 17.2978C14.2826 16.9328 14.5769 16.6285 14.5822 16.6216C14.5876 16.6147 14.8959 16.9085 15.2672 17.2747ZM16.9312 28.3104C17.2804 28.3879 17.8417 28.5356 18.1785 28.6385C18.7701 28.8194 18.7908 28.8358 18.7895 29.1216C18.7872 29.6337 18.5234 30.5802 18.2465 31.0701C17.8918 31.6976 17.0535 32.4907 16.4092 32.8084C15.3076 33.3518 13.8151 33.3293 12.7257 32.753C12.0969 32.4202 11.3396 31.6846 10.987 31.0637C10.7126 30.5806 10.4486 29.6332 10.4463 29.1228C10.445 28.8382 10.4657 28.822 11.0598 28.6429C11.6875 28.4538 12.7776 28.2156 13.3479 28.1432C13.9754 28.0635 16.309 28.1724 16.9312 28.3104ZM35.664 28.5488C39.6404 29.1837 42.5202 32.8082 42.2574 36.8469C41.9252 41.9524 36.9138 45.4233 32.1261 43.8638C28.9126 42.817 26.6845 39.7403 26.6845 36.3494C26.6845 31.5622 31.009 27.8055 35.664 28.5488ZM7.98782 30.8864C8.04706 31.1389 8.25607 31.676 8.45238 32.08C9.12686 33.4681 10.2092 34.5633 11.5789 35.2437C12.6787 35.79 13.2972 35.9295 14.6179 35.9295C15.9405 35.9295 16.5566 35.7901 17.6644 35.2402C19.3747 34.3911 20.7926 32.6656 21.2417 30.8864C21.3055 30.6339 21.3869 30.3937 21.4225 30.3526C21.5791 30.1727 23.2509 31.7339 24.0586 32.8145L24.4018 33.2736L24.2249 34.0081C23.847 35.5777 23.904 37.5844 24.3743 39.2674C24.6579 40.2819 25.4524 41.9109 26.0411 42.6847C26.4513 43.2238 26.4954 43.328 26.4984 43.7635L26.5017 44.2455H14.6092H2.71677L2.75868 41.3763C2.79433 38.9361 2.82798 38.3835 2.98392 37.6807C3.49711 35.3678 4.5065 33.4398 6.06455 31.7971C6.7725 31.0506 7.73672 30.2625 7.82209 30.3605C7.85411 30.3973 7.92868 30.6339 7.98782 30.8864ZM33.491 31.7493C31.7368 33.7997 30.7228 35.4646 30.4795 36.6945C30.245 37.8803 30.6845 39.2139 31.6232 40.1638C33.9669 42.536 37.9301 41.244 38.4926 37.9244C38.5807 37.4041 38.5802 37.151 38.4899 36.6945C38.3418 35.9457 37.714 34.6729 36.9906 33.6545C36.3965 32.8183 34.5897 30.6568 34.4847 30.6568C34.4523 30.6568 34.0051 31.1485 33.491 31.7493ZM35.0038 35.5999C35.5431 36.4173 35.8406 37.0338 35.8435 37.3401C35.8495 37.968 35.1411 38.6448 34.478 38.6448C34.0561 38.6448 33.4956 38.2877 33.2961 37.8917C33.0792 37.4614 33.0819 37.2327 33.31 36.7239C33.4986 36.303 34.405 34.8818 34.4847 34.8818C34.5097 34.8818 34.7433 35.2049 35.0038 35.5999Z" fill="#09B5C7"/>
</svg>
