<svg width="47" height="48" viewBox="0 0 47 48" fill="none" xmlns="http://www.w3.org/2000/svg">
<path fill-rule="evenodd" clip-rule="evenodd" d="M16.5234 2.769V5.53791L16.0925 5.72653L15.6617 5.91516L13.7739 3.98887C12.7356 2.92931 11.845 2.0625 11.7948 2.0625C11.6758 2.0625 2.01953 11.9249 2.01953 12.0464C2.01953 12.0973 2.86829 13.0066 3.90577 14.067L5.79192 15.995L5.60723 16.4349L5.42253 16.875H2.71131H0V24V31.125H2.71131H5.42253L5.60723 31.5651L5.79192 32.005L3.90577 33.933C2.86829 34.9934 2.01953 35.903 2.01953 35.9543C2.01953 36.0757 11.6765 45.9375 11.7954 45.9375C11.8453 45.9375 12.7356 45.0707 13.7739 44.0111L15.6617 42.0848L16.0925 42.2735L16.5234 42.4621V45.231V48H23.5H30.4766V45.231V42.4621L30.9075 42.2735L31.3383 42.0848L33.2261 44.0111C34.2644 45.0707 35.155 45.9375 35.2052 45.9375C35.3242 45.9375 44.9805 36.0751 44.9805 35.9536C44.9805 35.9027 44.1317 34.9934 43.0942 33.933L41.2081 32.005L41.3928 31.5651L41.5775 31.125H44.2887H47V24V16.875H44.2887H41.5775L41.3928 16.4349L41.2081 15.995L43.0942 14.067C44.1317 13.0066 44.9805 12.097 44.9805 12.0458C44.9805 11.9243 35.3235 2.0625 35.2046 2.0625C35.1547 2.0625 34.2644 2.92931 33.2261 3.98887L31.3383 5.91516L30.9075 5.72653L30.4766 5.53791V2.769V0H23.5H16.5234V2.769ZM27.7227 5.17969L27.7229 7.54688L28.7482 7.90266C29.3121 8.09841 30.2502 8.48991 30.8327 8.77266L31.892 9.28687L33.5255 7.62056L35.159 5.95425L38.1644 9.02362L41.1698 12.0929L39.5382 13.7612L37.9066 15.4295L38.4101 16.5112C38.687 17.1062 39.0703 18.0642 39.262 18.6401L39.6104 19.6872L41.9282 19.6874L44.2461 19.6875V24V28.3125L41.9282 28.3126L39.6104 28.3128L39.262 29.3599C39.0703 29.9358 38.687 30.8938 38.4101 31.4888L37.9066 32.5705L39.5382 34.2388L41.1698 35.9071L38.1644 38.9764L35.159 42.0457L33.5255 40.3794L31.892 38.7131L30.8327 39.2273C30.2502 39.5101 29.3121 39.9016 28.7482 40.0973L27.7229 40.4531L27.7227 42.8203L27.7227 45.1875H23.5H19.2773L19.2773 42.8203L19.2771 40.4531L18.2518 40.0973C17.6879 39.9016 16.7498 39.5101 16.1673 39.2273L15.108 38.7131L13.4745 40.3794L11.841 42.0457L8.83563 38.9764L5.8302 35.9071L7.4618 34.2388L9.0934 32.5705L8.58989 31.4888C8.31303 30.8938 7.92969 29.9358 7.73802 29.3599L7.38965 28.3128L5.07178 28.3126L2.75391 28.3125V24V19.6875L5.07178 19.6874L7.38965 19.6872L7.73802 18.6401C7.92969 18.0642 8.31303 17.1062 8.58989 16.5112L9.0934 15.4295L7.4618 13.7612L5.8302 12.0929L8.83563 9.02362L11.841 5.95425L13.4745 7.62056L15.108 9.28687L16.1673 8.77266C16.7498 8.48991 17.6879 8.09841 18.2518 7.90266L19.2771 7.54688L19.2773 5.17969L19.2773 2.8125H23.5H27.7227L27.7227 5.17969ZM22.1689 9.90553C17.8392 10.436 14.2564 12.6487 11.9395 16.2237C10.9227 17.7924 10.2032 19.6202 9.85623 21.5156C9.61921 22.8103 9.61921 25.1897 9.85623 26.4844C10.9283 32.3406 15.3332 36.8392 21.0674 37.9341C21.7286 38.0603 22.4091 38.1094 23.5 38.1094C25.2275 38.1094 26.2882 37.9463 27.7686 37.4528C32.625 35.8343 36.1972 31.6551 37.1438 26.4844C37.3808 25.1897 37.3808 22.8103 37.1438 21.5156C36.0276 15.4188 31.3126 10.813 25.3359 9.98147C24.4585 9.85941 22.8588 9.82106 22.1689 9.90553ZM25.1527 12.7917C28.6898 13.3362 31.7917 15.6328 33.3901 18.8906C34.2635 20.6707 34.5569 21.9556 34.5569 24C34.5569 25.5729 34.4172 26.4835 33.9886 27.7031C32.6403 31.5406 29.6023 34.2552 25.6844 35.1234C24.6202 35.3592 22.3722 35.3573 21.2969 35.1197C18.6159 34.5273 16.2078 32.9509 14.5502 30.7031C13.5998 29.4144 12.7746 27.3781 12.5293 25.7159C11.7164 20.2081 14.872 15.0038 20.1117 13.211C21.6529 12.6836 23.4695 12.5325 25.1527 12.7917ZM22.4219 17.4141C21.0061 19.6229 20.375 20.7163 19.4545 22.5559C17.8254 25.8112 17.6267 27.4383 18.6107 29.4613C19.026 30.3151 20.0804 31.4181 20.9009 31.857C22.1188 32.5088 23.5271 32.6843 24.8222 32.3461C25.8555 32.0762 26.5631 31.6587 27.3629 30.8469C28.4988 29.694 29.0937 28.1635 28.9821 26.6815C28.8464 24.8808 27.2977 21.6377 24.4894 17.2734C23.9835 16.4872 23.5377 15.8438 23.499 15.8438C23.4603 15.8438 22.9756 16.5503 22.4219 17.4141ZM24.4235 22.5308C25.3405 24.2141 26.0438 25.7947 26.1885 26.4976C26.3809 27.4325 25.9325 28.5682 25.1397 29.1548C22.9786 30.7537 20.0796 28.6251 20.9286 26.063C21.3682 24.7364 23.3151 20.9527 23.5218 21.0231C23.5761 21.0415 23.9818 21.72 24.4235 22.5308Z" fill="#09B5C7"/>
</svg>
