<svg width="37" height="37" viewBox="0 0 37 37" fill="none" xmlns="http://www.w3.org/2000/svg">
<path fill-rule="evenodd" clip-rule="evenodd" d="M8.67188 4.33594V8.67188H4.33594H0V22.8359V37H18.5H37V22.8359V8.67188H32.6641H28.3281V4.33594V0H18.5H8.67188V4.33594ZM26.1602 5.41992V8.67188H25.04H23.9199V6.50391V4.33594H18.5H13.0801V6.50391V8.67188H11.96H10.8398V5.41992V2.16797H18.5H26.1602V5.41992ZM21.752 7.58789V8.67188H18.5H15.248V7.58789V6.50391H18.5H21.752V7.58789ZM34.832 14.0918V17.3438H33.748H32.6641V15.1758V13.0078H29.4121H26.1602V15.1758V17.3438H18.5H10.8398V15.1758V13.0078H7.58789H4.33594V15.1758V17.3438H3.25195H2.16797V14.0918V10.8398H18.5H34.832V14.0918ZM8.67188 17.455C8.67188 19.5968 8.66313 19.7515 8.5264 20.0195C8.36193 20.3418 7.94604 20.5957 7.58254 20.5957C7.24644 20.5957 6.79998 20.3147 6.64099 20.003C6.51496 19.756 6.50391 19.5503 6.50391 17.455V15.1758H7.58789H8.67188V17.455ZM30.4961 17.455C30.4961 19.5968 30.4874 19.7515 30.3506 20.0195C30.1861 20.3418 29.7703 20.5957 29.4068 20.5957C29.0707 20.5957 28.6242 20.3147 28.4652 20.003C28.3392 19.756 28.3281 19.5503 28.3281 17.455V15.1758H29.4121H30.4961V17.455ZM4.39259 20.0137C4.51602 20.7337 4.798 21.2809 5.30834 21.7913C7.17569 23.6586 10.3325 22.6415 10.7807 20.0281L10.8693 19.5117H18.5H26.1307L26.2168 20.0137C26.3402 20.7337 26.6222 21.2809 27.1326 21.7913C28.9999 23.6586 32.1568 22.6415 32.6049 20.0281L32.6935 19.5117H33.7628H34.832V27.1719V34.832H18.5H2.16797V27.1719V19.5117H3.23721H4.30653L4.39259 20.0137Z" fill="#09B5C7"/>
</svg>
