<svg width="50" height="38" viewBox="0 0 50 38" fill="none" xmlns="http://www.w3.org/2000/svg">
<path fill-rule="evenodd" clip-rule="evenodd" d="M0 16.1132V32.2263H3.01604H6.03198L6.09408 32.5551C6.34902 33.906 7.54112 35.6506 8.88554 36.6403C9.48096 37.0785 10.5563 37.5951 11.3264 37.8128C12.1154 38.0359 14.0452 38.0662 14.8415 37.868C17.2977 37.2566 19.3434 35.3913 20.0828 33.0886L20.3582 32.231L25.0097 32.2287L29.6611 32.2263L29.7232 32.5551C29.9782 33.906 31.1703 35.6506 32.5147 36.6403C33.1101 37.0785 34.1854 37.5951 34.9555 37.8128C35.7446 38.0359 37.6744 38.0662 38.4706 37.868C40.9269 37.2566 42.9726 35.3913 43.712 33.0886L43.9874 32.231L46.9936 32.2287L50 32.2263L49.9694 23.3204C49.9396 14.5739 49.9353 14.4014 49.731 13.6835C49.1526 11.6506 48.2795 10.1227 46.9384 8.79672C45.6162 7.48942 44.0833 6.62348 42.181 6.10932C41.3819 5.89334 41.1849 5.88363 36.884 5.84762L32.4169 5.81015V2.90513V0H16.2084H0V16.1132ZM29.4876 13.2011V23.4903H16.2084H2.92924V13.2011V2.91202H16.2084H29.4876V13.2011ZM19.6747 6.8413C18.5026 7.09775 17.1572 7.80605 16.4587 8.53415L16.1719 8.83312H11.0152H5.85847V13.2011V17.5692H10.9947H16.1309L16.6174 18.0039C18.6186 19.7927 21.4715 20.1937 23.883 19.0252C24.6002 18.6777 25.9065 17.6663 26.507 16.9938L26.6998 16.7779L25.1157 15.2195C23.0255 13.1633 23.0233 13.4664 25.1432 11.3563L26.7549 9.75196L25.8999 8.90204C25.4297 8.43466 24.9131 7.96349 24.752 7.85517C23.2878 6.87052 21.3286 6.47934 19.6747 6.8413ZM41.1841 8.89058C41.5979 8.97552 42.2002 9.15529 42.5225 9.29002C43.1894 9.56889 44.2871 10.2548 44.5639 10.5656L44.7499 10.7745H40.048H35.3461V15.6278V20.4812H41.2046H47.063V24.8978V29.3143H45.5116H43.9603L43.8982 28.9855C43.6182 27.5013 42.1967 25.5565 40.7113 24.6253C39.4321 23.8233 38.3697 23.5364 36.7131 23.5455C35.6031 23.5517 35.4085 23.5807 34.565 23.8664C34.0548 24.0393 33.3628 24.3513 33.0271 24.56L32.4169 24.9393V16.8377V8.73605H36.4243C39.7087 8.73605 40.5674 8.76391 41.1841 8.89058ZM22.2071 9.79923L22.4937 9.90979L21.548 10.8535L20.6023 11.7972V13.3466V14.8959L21.4486 15.7413L22.295 16.5866L22.0101 16.6654C21.8534 16.7087 21.3737 16.7441 20.944 16.7441C20.2727 16.7441 20.0738 16.7019 19.5282 16.4437C18.7195 16.0609 18.1132 15.457 17.7348 14.6572C17.4746 14.1072 17.4364 13.9203 17.4373 13.2011C17.4381 12.5125 17.4816 12.2824 17.7006 11.8094C18.3737 10.3557 19.6614 9.55695 21.1881 9.64606C21.5909 9.66955 22.0494 9.73847 22.2071 9.79923ZM14.5791 12.0121C14.4873 12.3578 14.4873 14.0445 14.5791 14.3902L14.6499 14.6572H11.7188H8.78771V13.2011V11.7451H11.7188H14.6499L14.5791 12.0121ZM46.8244 14.1961C46.9261 14.521 47.003 15.2247 47.0367 16.1374L47.0896 17.5692H42.6825H38.2753V15.6278V13.6865H42.4701H46.665L46.8244 14.1961ZM6.92139 27.028C6.53669 27.6379 6.05991 28.8036 6.0558 29.1444C6.05395 29.2991 5.91344 29.3143 4.49149 29.3143H2.92924V27.8583V26.4023H5.12265H7.31606L6.92139 27.028ZM14.08 26.5105C14.9258 26.6874 15.6259 27.0709 16.2616 27.7057C18.7797 30.2205 17.407 34.4575 13.8792 35.0589C12.4973 35.2945 11.1429 34.8539 10.1042 33.8309C8.36541 32.1185 8.36599 29.4215 10.1057 27.7082C11.2012 26.6292 12.6131 26.2038 14.08 26.5105ZM30.5506 27.028C30.1659 27.6379 29.6891 28.8036 29.685 29.1444C29.683 29.3038 29.3939 29.3143 24.9961 29.3143C20.5984 29.3143 20.3093 29.3038 20.3073 29.1444C20.3032 28.8036 19.8264 27.6379 19.4417 27.028L19.0471 26.4023H24.9961H30.9452L30.5506 27.028ZM37.7091 26.5105C38.555 26.6874 39.2551 27.0709 39.8907 27.7057C42.4089 30.2205 41.0361 34.4575 37.5084 35.0589C36.1265 35.2945 34.7721 34.8539 33.7334 33.8309C31.9946 32.1185 31.9952 29.4215 33.7348 27.7082C34.8304 26.6292 36.2423 26.2038 37.7091 26.5105ZM11.7169 30.7703V32.2263H13.1816H14.6462V30.7703V29.3143H13.1816H11.7169V30.7703ZM35.3461 30.7703V32.2263H36.8107H38.2753V30.7703V29.3143H36.8107H35.3461V30.7703Z" fill="#09B5C7"/>
</svg>
