<svg width="228" height="73" viewBox="0 0 228 73" fill="none" xmlns="http://www.w3.org/2000/svg">
<g clip-path="url(#clip0_105_2)">
<path d="M21.9566 33.3566H13.5798C11.9148 33.3566 10.51 31.9537 10.51 30.2911V23.7964L5.56719 20.9388L0 24.1082V30.2391C0 37.721 6.08749 43.8 13.5798 43.8H22.3208L19.095 38.2406L21.9566 33.3566Z" fill="#FFC20E"/>
<path d="M10.51 21.926V13.5609C10.51 12.7295 10.8222 11.9502 11.3945 11.3786C11.9669 10.8071 12.7473 10.4434 13.5798 10.4434H20.0835L22.9452 5.50747L19.7193 0H13.5798C9.9377 0 6.55576 1.40285 4.0063 4.00071C1.40481 6.54662 0 9.9758 0 13.5609V22.2897L5.56719 19.0683L10.51 21.926Z" fill="#EF3824"/>
<path d="M33.4032 21.874V30.2391C33.4032 31.0705 33.091 31.7979 32.4666 32.4213C31.8943 32.9929 31.1139 33.3566 30.2814 33.3566H23.7777L20.916 38.2925L24.1419 43.852H30.2814C33.9235 43.852 37.3054 42.4491 39.8549 39.8512C42.4043 37.3053 43.8612 33.8762 43.8612 30.2391V21.5103L38.294 24.7317L33.4032 21.874Z" fill="#00A3B4"/>
<path d="M30.3334 0H21.5404L24.7662 5.55943L21.9046 10.4954H30.2814C31.1139 10.4954 31.8943 10.8071 32.4666 11.3786C33.039 11.9502 33.3512 12.7295 33.3512 13.5609V20.0555L38.294 22.9132L43.8612 19.6918V13.5609C43.9132 6.079 37.8257 0 30.3334 0Z" fill="#1268B3"/>
<path d="M12.9554 67.3886C11.4986 67.9082 9.98973 68.116 8.63696 68.116C4.5266 68.116 0 65.7779 0 59.7509C0 54.0356 4.0063 51.1779 9.26132 51.1779C10.5621 51.1779 11.6547 51.3338 12.9554 51.7494L12.7993 54.6071C11.8108 54.2434 10.7702 53.9836 9.52147 53.9836C5.77531 53.9836 3.59006 56.3217 3.59006 59.6989C3.59006 63.6996 6.29561 65.3103 9.26132 65.3103C10.7182 65.3103 11.9148 64.9466 12.7473 64.5829L12.9554 67.3886Z" fill="white"/>
<path d="M25.0264 55.6462V58.0363H21.1762V67.9601H17.9503V58.0363H14.1001V55.6462H25.0264Z" fill="white"/>
<path d="M26.8474 73V55.6462H29.657V57.7765H29.7091C30.9578 55.5423 33.1951 55.4384 33.7154 55.4384C36.525 55.4384 38.8663 57.205 38.8663 61.7772C38.8663 66.2975 36.2128 68.116 33.5593 68.116C31.7902 68.116 30.6976 67.2847 30.0212 66.2455H29.9692L30.0212 68.2719V73H26.8474ZM32.7788 65.5701C34.0796 65.5701 35.4844 64.427 35.4844 61.8292C35.4844 59.2313 34.0796 58.0882 32.7788 58.0882C31.4781 58.0882 30.0733 59.2313 30.0733 61.8292C30.0733 64.427 31.4781 65.5701 32.7788 65.5701Z" fill="white"/>
<path d="M46.8789 55.4904C50.521 55.4904 53.2265 57.7245 53.2265 61.8292C53.2265 65.9338 50.521 68.168 46.8789 68.168C43.2368 68.168 40.5312 65.9338 40.5312 61.8292C40.5312 57.7245 43.1848 55.4904 46.8789 55.4904ZM46.8789 65.7779C48.2837 65.7779 49.8446 64.6349 49.8446 61.7772C49.8446 58.9196 48.2837 57.7765 46.8789 57.7765C45.4741 57.7765 43.9132 58.9196 43.9132 61.7772C43.9132 64.6349 45.4221 65.7779 46.8789 65.7779Z" fill="white"/>
<path d="M58.7938 55.6463V62.089L58.6897 64.2712H58.7417L64.0488 55.6463H67.6388V67.9082H64.413V61.5694L64.517 59.2833H64.465L59.0539 67.9082H55.6199V55.6463H58.7938ZM65.6097 51.1779C65.0373 52.269 63.8407 53.516 61.7074 53.516C59.5742 53.516 58.3775 52.269 57.8052 51.1779L59.0019 50.0868C59.8344 51.074 60.927 51.1779 61.7074 51.1779C62.4879 51.1779 63.5805 51.074 64.413 50.0868L65.6097 51.1779Z" fill="white"/>
<path d="M79.1894 58.1402C78.6171 57.8804 77.9407 57.8285 77.2123 57.8285C75.0791 57.8285 73.4141 59.4391 73.4141 61.8811C73.4141 64.1153 74.7669 65.8299 77.0042 65.8299C77.7326 65.8299 78.6171 65.674 79.4496 65.3103L79.5537 67.6484C78.9813 67.8562 77.7846 68.116 76.3798 68.116C72.0093 68.116 69.9802 64.8947 69.9802 61.6733C69.9802 58.4 72.2695 55.4904 76.64 55.4904C77.4204 55.4904 78.461 55.5943 79.3455 55.8021L79.1894 58.1402Z" fill="white"/>
<path d="M82.1552 56.2697C83.612 55.6982 85.0168 55.4384 86.6818 55.4384C91.6766 55.4384 92.0929 58.2961 92.0929 60.1665V67.9082H88.919V66.0897H88.867C88.6069 66.6092 87.7224 68.064 85.0168 68.064C81.895 68.064 80.6463 66.2455 80.6463 64.3231C80.6463 62.6605 81.5308 60.2704 86.7338 60.2704C87.3061 60.2704 87.9305 60.2704 88.5548 60.2704H88.815V59.7509C88.815 58.4 87.5142 57.6206 86.0574 57.6206C84.9648 57.6206 83.7681 57.7765 82.1031 58.7117V56.2697H82.1552ZM88.2947 62.3487C86.5257 62.3487 83.9242 62.3487 83.9242 64.3231C83.9242 65.2064 84.4445 65.9338 85.9013 65.9338C87.2541 65.9338 88.867 65.3103 88.867 62.6605V62.3487H88.2947Z" fill="white"/>
<path d="M98.3885 55.6462V60.2704H103.539V55.6462H106.765V67.9082H103.539V62.6605H98.3885V67.9082H95.1626V55.6462H98.3885Z" fill="white"/>
<path d="M119.461 55.6462V58.0363H115.61V67.9601H112.385V58.0363H108.534V55.6462H119.461Z" fill="white"/>
<path d="M123.311 62.7644C123.415 64.3231 124.559 65.7779 126.953 65.7779C128.358 65.7779 129.658 65.4662 130.803 64.9466V67.3366C129.554 67.8043 128.045 68.116 126.537 68.116C122.843 68.116 119.929 66.1416 119.929 61.7772C119.929 57.8285 122.686 55.4384 126.016 55.4384C131.584 55.4384 131.688 60.8939 131.688 61.985V62.7124H123.311V62.7644ZM128.358 60.5822C128.41 58.5039 127.005 57.7245 125.808 57.7245C124.403 57.7245 123.311 58.9715 123.311 60.5822H128.358Z" fill="white"/>
<path d="M136.214 55.6462L137.931 58.5039L138.66 59.9067H138.712L139.44 58.4519L141.053 55.6462H144.643L140.897 61.5694L145.007 67.9082H141.157L139.128 64.6349L138.399 63.284H138.347L137.567 64.6868L135.642 67.9082H132.052L136.162 61.5694L132.416 55.6462H136.214V55.6462Z" fill="white"/>
<path d="M155.257 58.1402C154.685 57.8804 154.008 57.8285 153.28 57.8285C151.147 57.8285 149.482 59.4391 149.482 61.8811C149.482 64.1153 150.835 65.8299 153.072 65.8299C153.8 65.8299 154.685 65.674 155.517 65.3103L155.621 67.6484C155.049 67.8562 153.852 68.116 152.448 68.116C148.077 68.116 146.048 64.8947 146.048 61.6733C146.048 58.4 148.337 55.4904 152.708 55.4904C153.488 55.4904 154.529 55.5943 155.413 55.8021L155.257 58.1402Z" fill="white"/>
<path d="M160.408 62.7644C160.512 64.3231 161.657 65.7779 164.05 65.7779C165.455 65.7779 166.756 65.4662 167.9 64.9466V67.3366C166.652 67.8043 165.143 68.116 163.634 68.116C159.94 68.116 157.026 66.1416 157.026 61.7772C157.026 57.8285 159.784 55.4384 163.114 55.4384C168.681 55.4384 168.785 60.8939 168.785 61.985V62.7124H160.408V62.7644ZM165.455 60.5822C165.507 58.5039 164.102 57.7245 162.906 57.7245C161.501 57.7245 160.408 58.9715 160.408 60.5822H165.455Z" fill="white"/>
<path d="M171.178 73V55.6462H173.988V57.7765H174.04C175.289 55.5423 177.526 55.4384 178.046 55.4384C180.856 55.4384 183.197 57.205 183.197 61.7772C183.197 66.2975 180.544 68.116 177.89 68.116C176.121 68.116 175.028 67.2847 174.352 66.2455H174.3L174.352 68.2719V73H171.178ZM177.11 65.5701C178.41 65.5701 179.815 64.427 179.815 61.8292C179.815 59.2313 178.41 58.0882 177.11 58.0882C175.809 58.0882 174.404 59.2313 174.404 61.8292C174.404 64.427 175.809 65.5701 177.11 65.5701Z" fill="white"/>
<path d="M191.626 55.6462C195.164 55.6462 195.84 57.3608 195.84 58.6598C195.84 60.2185 194.852 61.1537 193.551 61.4135V61.4655C194.956 61.5694 196.361 62.4526 196.361 64.479C196.361 66.6612 194.54 67.9082 191.782 67.9082H185.591V55.6462H191.626ZM188.816 60.4263H190.794C191.418 60.4263 192.615 60.4263 192.615 59.0754C192.615 57.8284 191.418 57.7245 190.794 57.7245H188.816V60.4263ZM188.816 65.7779H190.898C191.47 65.7779 193.031 65.7779 193.031 64.1672C193.031 62.6605 191.626 62.5566 190.898 62.5566H188.868V65.7779H188.816Z" fill="white"/>
<path d="M202.188 55.6462V62.0889L202.084 64.2712H202.136L207.443 55.6462H211.033V67.9082H207.807V61.5694L207.911 59.2833H207.859L202.396 67.9082H198.962V55.6462H202.188Z" fill="white"/>
<path d="M222.584 58.1402C222.011 57.8804 221.335 57.8285 220.607 57.8285C218.473 57.8285 216.808 59.4391 216.808 61.8811C216.808 64.1153 218.161 65.8299 220.399 65.8299C221.127 65.8299 222.011 65.674 222.844 65.3103L222.948 67.6484C222.376 67.8562 221.179 68.116 219.774 68.116C215.404 68.116 213.374 64.8947 213.374 61.6733C213.374 58.4 215.664 55.4904 220.034 55.4904C220.815 55.4904 221.855 55.5943 222.74 55.8021L222.584 58.1402Z" fill="white"/>
</g>
<path d="M69.212 17H70.04V9.308H74.816V17H75.644V8.564H69.212V17ZM77.7611 19.4H78.5771V16.472C78.5771 16.16 78.5411 15.944 78.5411 15.944H78.5651C78.9611 16.7 79.7051 17.144 80.5571 17.144C82.1291 17.144 83.2571 15.896 83.2571 13.976C83.2571 12.116 82.2611 10.82 80.6291 10.82C79.6931 10.82 78.9011 11.288 78.5291 12.068H78.5051C78.5051 12.068 78.5411 11.864 78.5411 11.6V10.964H77.7611V19.4ZM78.5531 14C78.5531 12.284 79.5011 11.564 80.5091 11.564C81.6371 11.564 82.4291 12.512 82.4291 13.988C82.4291 15.524 81.5411 16.412 80.4731 16.412C79.2371 16.412 78.5531 15.212 78.5531 14ZM84.4195 13.952C84.4195 15.776 85.8355 17.144 87.5995 17.144C89.3635 17.144 90.7915 15.776 90.7915 13.952C90.7915 12.164 89.3635 10.82 87.5995 10.82C85.8355 10.82 84.4195 12.164 84.4195 13.952ZM85.2595 13.952C85.2595 12.584 86.3035 11.552 87.5995 11.552C88.8955 11.552 89.9515 12.584 89.9515 13.952C89.9515 15.368 88.8955 16.4 87.5995 16.4C86.3035 16.4 85.2595 15.368 85.2595 13.952ZM91.9078 13.988C91.9078 15.848 93.2758 17.144 95.0758 17.144C95.8678 17.144 96.7438 16.82 97.3078 16.304L96.9358 15.68C96.4438 16.124 95.7598 16.4 95.0998 16.4C93.8518 16.4 92.7958 15.548 92.7598 14.012H97.3918C97.4037 13.88 97.4158 13.736 97.4158 13.604C97.4158 12.104 96.5638 10.82 94.8958 10.82C93.2638 10.82 91.9078 12.008 91.9078 13.988ZM92.7958 13.364C92.9878 12.152 93.8638 11.492 94.8717 11.492C95.7718 11.492 96.5398 12.104 96.5878 13.364H92.7958ZM98.9486 17H99.7646V14.24H100.737L102.741 17H103.737L101.397 13.856V13.832L103.497 10.964H102.537L100.725 13.52H99.7646V10.964H98.9486V17ZM106.39 17H107.206V11.684H109.414V10.964H104.194V11.684H106.39V17ZM110.667 17H111.447L114.411 13.028C114.639 12.692 115.011 12.212 115.023 12.152H115.047C115.047 12.2 115.011 12.68 115.011 13.028V17H115.815V10.964H115.035L112.071 14.924C111.831 15.26 111.471 15.776 111.447 15.824H111.423C111.435 15.8 111.459 15.296 111.459 14.924V10.964H110.667V17ZM117.757 19.4H118.573V16.472C118.573 16.16 118.537 15.944 118.537 15.944H118.561C118.957 16.7 119.701 17.144 120.553 17.144C122.125 17.144 123.253 15.896 123.253 13.976C123.253 12.116 122.257 10.82 120.625 10.82C119.689 10.82 118.897 11.288 118.525 12.068H118.501C118.501 12.068 118.537 11.864 118.537 11.6V10.964H117.757V19.4ZM118.549 14C118.549 12.284 119.497 11.564 120.505 11.564C121.633 11.564 122.425 12.512 122.425 13.988C122.425 15.524 121.537 16.412 120.469 16.412C119.233 16.412 118.549 15.212 118.549 14ZM124.416 13.952C124.416 15.776 125.832 17.144 127.596 17.144C129.36 17.144 130.788 15.776 130.788 13.952C130.788 12.164 129.36 10.82 127.596 10.82C125.832 10.82 124.416 12.164 124.416 13.952ZM125.256 13.952C125.256 12.584 126.3 11.552 127.596 11.552C128.892 11.552 129.948 12.584 129.948 13.952C129.948 15.368 128.892 16.4 127.596 16.4C126.3 16.4 125.256 15.368 125.256 13.952ZM132.312 17H134.616C135.972 17 136.8 16.352 136.8 15.308C136.8 14.6 136.356 14.012 135.576 13.856V13.832C136.164 13.616 136.488 13.124 136.488 12.5C136.488 11.504 135.72 10.964 134.496 10.964H132.312V17ZM133.128 13.58V11.588H134.364C135.216 11.588 135.648 11.9 135.648 12.548C135.648 13.196 135.228 13.58 134.412 13.58H133.128ZM133.128 16.364V14.204H134.496C135.432 14.204 135.96 14.588 135.96 15.296C135.96 15.944 135.504 16.364 134.508 16.364H133.128ZM137.819 15.38C137.819 16.544 138.839 17.144 139.859 17.144C140.831 17.144 141.587 16.52 141.899 15.788H141.923C141.923 15.788 141.887 15.992 141.887 16.292V17H142.667V13.136C142.667 11.624 141.863 10.82 140.411 10.82C139.607 10.82 138.755 11.096 138.275 11.504L138.647 12.128C139.139 11.768 139.751 11.552 140.363 11.552C141.215 11.552 141.851 11.948 141.851 13.112V13.28H141.491C140.339 13.28 137.819 13.4 137.819 15.38ZM138.647 15.308C138.647 13.964 140.567 13.928 141.503 13.928H141.851V14.204C141.851 15.26 141.167 16.46 140.003 16.46C139.103 16.46 138.647 15.872 138.647 15.308ZM144.546 17H145.362V14.264H148.89V17H149.706V10.964H148.89V13.544H145.362V10.964H144.546V17ZM151.648 17H152.428L155.392 13.028C155.62 12.692 155.992 12.212 156.004 12.152H156.028C156.028 12.2 155.992 12.68 155.992 13.028V17H156.796V10.964H156.016L153.052 14.924C152.812 15.26 152.452 15.776 152.428 15.824H152.404C152.416 15.8 152.44 15.296 152.44 14.924V10.964H151.648V17ZM158.33 13.988C158.33 15.848 159.698 17.144 161.498 17.144C162.29 17.144 163.166 16.82 163.73 16.304L163.358 15.68C162.866 16.124 162.182 16.4 161.522 16.4C160.274 16.4 159.218 15.548 159.182 14.012H163.814C163.826 13.88 163.838 13.736 163.838 13.604C163.838 12.104 162.986 10.82 161.318 10.82C159.686 10.82 158.33 12.008 158.33 13.988ZM159.218 13.364C159.41 12.152 160.286 11.492 161.294 11.492C162.194 11.492 162.962 12.104 163.01 13.364H159.218ZM168.37 17H169.15L172.114 13.028C172.342 12.692 172.714 12.212 172.726 12.152H172.75C172.75 12.2 172.714 12.68 172.714 13.028V17H173.518V10.964H172.738L169.774 14.924C169.534 15.26 169.174 15.776 169.15 15.824H169.126C169.138 15.8 169.162 15.296 169.162 14.924V10.964H168.37V17ZM178.232 17H179.024L179.324 13.1C179.348 12.776 179.324 12.056 179.324 12.056H179.348C179.348 12.056 179.516 12.488 179.744 12.956L181.412 16.304H182.156L183.836 12.932C184.088 12.44 184.22 12.056 184.22 12.056H184.244C184.244 12.056 184.232 12.776 184.244 13.1L184.544 17H185.348L184.844 10.964H183.992L182.168 14.684C181.988 15.068 181.796 15.536 181.796 15.536H181.772C181.772 15.536 181.568 15.056 181.4 14.684L179.588 10.964H178.724L178.232 17ZM186.654 13.952C186.654 15.776 188.07 17.144 189.834 17.144C191.598 17.144 193.026 15.776 193.026 13.952C193.026 12.164 191.598 10.82 189.834 10.82C188.07 10.82 186.654 12.164 186.654 13.952ZM187.494 13.952C187.494 12.584 188.538 11.552 189.834 11.552C191.13 11.552 192.186 12.584 192.186 13.952C192.186 15.368 191.13 16.4 189.834 16.4C188.538 16.4 187.494 15.368 187.494 13.952ZM194.55 17H195.366V14.264H198.894V17H199.71V10.964H198.894V13.544H195.366V10.964H194.55V17ZM203.152 17H203.968V11.684H206.176V10.964H200.956V11.684H203.152V17ZM206.842 15.38C206.842 16.544 207.862 17.144 208.882 17.144C209.854 17.144 210.61 16.52 210.922 15.788H210.946C210.946 15.788 210.91 15.992 210.91 16.292V17H211.69V13.136C211.69 11.624 210.886 10.82 209.434 10.82C208.63 10.82 207.778 11.096 207.298 11.504L207.67 12.128C208.162 11.768 208.774 11.552 209.386 11.552C210.238 11.552 210.874 11.948 210.874 13.112V13.28H210.514C209.362 13.28 206.842 13.4 206.842 15.38ZM207.67 15.308C207.67 13.964 209.59 13.928 210.526 13.928H210.874V14.204C210.874 15.26 210.19 16.46 209.026 16.46C208.126 16.46 207.67 15.872 207.67 15.308ZM212.838 17H213.786L215.562 14.276H216.522V17H217.314V14.276H218.286L220.05 17H221.01L218.97 13.916V13.892L220.818 10.964H219.918L218.286 13.556H217.314V10.964H216.522V13.556H215.55L213.918 10.964H213.03L214.878 13.892V13.916L212.838 17ZM68.972 31H69.752L72.716 27.028C72.944 26.692 73.316 26.212 73.328 26.152H73.352C73.352 26.2 73.316 26.68 73.316 27.028V31H74.12V24.964H73.34L70.376 28.924C70.136 29.26 69.776 29.776 69.752 29.824H69.728C69.74 29.8 69.764 29.296 69.764 28.924V24.964H68.972V31ZM76.0618 31H76.8778V28.264H80.4058V31H81.2218V24.964H80.4058V27.544H76.8778V24.964H76.0618V31ZM82.4314 31H83.3794L85.1554 28.276H86.1154V31H86.9074V28.276H87.8794L89.6434 31H90.6034L88.5634 27.916V27.892L90.4114 24.964H89.5114L87.8794 27.556H86.9074V24.964H86.1154V27.556H85.1434L83.5114 24.964H82.6234L84.4714 27.892V27.916L82.4314 31ZM91.2046 27.988C91.2046 29.848 92.5726 31.144 94.3726 31.144C95.1646 31.144 96.0406 30.82 96.6046 30.304L96.2326 29.68C95.7406 30.124 95.0566 30.4 94.3966 30.4C93.1486 30.4 92.0926 29.548 92.0566 28.012H96.6886C96.7006 27.88 96.7126 27.736 96.7126 27.604C96.7126 26.104 95.8606 24.82 94.1926 24.82C92.5606 24.82 91.2046 26.008 91.2046 27.988ZM92.0926 27.364C92.2846 26.152 93.1606 25.492 94.1686 25.492C95.0686 25.492 95.8366 26.104 95.8846 27.364H92.0926ZM98.2454 31H99.0614V28.264H102.589V31H103.405V24.964H102.589V27.544H99.0614V24.964H98.2454V31ZM104.939 27.988C104.939 29.848 106.307 31.144 108.107 31.144C108.899 31.144 109.775 30.82 110.339 30.304L109.967 29.68C109.475 30.124 108.791 30.4 108.131 30.4C106.883 30.4 105.827 29.548 105.791 28.012H110.423C110.435 27.88 110.447 27.736 110.447 27.604C110.447 26.104 109.595 24.82 107.927 24.82C106.295 24.82 104.939 26.008 104.939 27.988ZM105.827 27.364C106.019 26.152 106.895 25.492 107.903 25.492C108.803 25.492 109.571 26.104 109.619 27.364H105.827ZM111.98 33.4H112.796V30.472C112.796 30.16 112.76 29.944 112.76 29.944H112.784C113.18 30.7 113.924 31.144 114.776 31.144C116.348 31.144 117.476 29.896 117.476 27.976C117.476 26.116 116.48 24.82 114.848 24.82C113.912 24.82 113.12 25.288 112.748 26.068H112.724C112.724 26.068 112.76 25.864 112.76 25.6V24.964H111.98V33.4ZM112.772 28C112.772 26.284 113.72 25.564 114.728 25.564C115.856 25.564 116.648 26.512 116.648 27.988C116.648 29.524 115.76 30.412 114.692 30.412C113.456 30.412 112.772 29.212 112.772 28ZM119.046 31H119.862V28.264H123.39V31H124.206V24.964H123.39V27.544H119.862V24.964H119.046V31ZM131.392 31H132.208V24.964H131.392V31ZM126.148 31H128.236C129.688 31 130.372 30.244 130.372 29.152C130.372 27.724 129.34 27.268 128.26 27.268H126.964V24.964H126.148V31ZM126.964 30.352V27.916H128.176C129.124 27.916 129.532 28.408 129.532 29.14C129.532 29.86 129.136 30.352 128.164 30.352H126.964ZM133.42 31H134.368L135.844 28.732C135.952 28.564 136.048 28.396 136.048 28.396H136.072C136.072 28.396 136.168 28.576 136.276 28.732L137.74 31H138.7L136.576 27.856L138.52 24.964H137.572L136.276 26.992C136.18 27.148 136.072 27.34 136.072 27.34H136.048C136.048 27.34 135.94 27.148 135.844 26.992L134.548 24.964H133.588L135.532 27.856L133.42 31ZM142.486 27.988C142.486 29.86 143.866 31.144 145.654 31.144C146.578 31.144 147.478 30.772 148.006 30.184L147.634 29.572C147.154 30.1 146.398 30.4 145.702 30.4C144.358 30.4 143.326 29.404 143.326 27.988C143.326 26.548 144.358 25.552 145.678 25.552C146.35 25.552 147.022 25.864 147.442 26.296L147.862 25.684C147.322 25.096 146.446 24.82 145.654 24.82C143.878 24.82 142.486 26.128 142.486 27.988ZM149.398 31H150.178L153.142 27.028C153.37 26.692 153.742 26.212 153.754 26.152H153.778C153.778 26.2 153.742 26.68 153.742 27.028V31H154.546V24.964H153.766L150.802 28.924C150.562 29.26 150.202 29.776 150.178 29.824H150.154C150.166 29.8 150.19 29.296 150.19 28.924V24.964H149.398V31ZM156.08 27.988C156.08 29.86 157.46 31.144 159.248 31.144C160.172 31.144 161.072 30.772 161.6 30.184L161.228 29.572C160.748 30.1 159.992 30.4 159.296 30.4C157.952 30.4 156.92 29.404 156.92 27.988C156.92 26.548 157.952 25.552 159.272 25.552C159.944 25.552 160.616 25.864 161.036 26.296L161.456 25.684C160.916 25.096 160.04 24.82 159.248 24.82C157.472 24.82 156.08 26.128 156.08 27.988ZM164.492 31H165.308V25.684H167.516V24.964H162.296V25.684H164.492V31ZM168.103 27.988C168.103 29.848 169.471 31.144 171.271 31.144C172.063 31.144 172.939 30.82 173.503 30.304L173.131 29.68C172.639 30.124 171.955 30.4 171.295 30.4C170.047 30.4 168.991 29.548 168.955 28.012H173.587C173.599 27.88 173.611 27.736 173.611 27.604C173.611 26.104 172.759 24.82 171.091 24.82C169.459 24.82 168.103 26.008 168.103 27.988ZM168.991 27.364C169.183 26.152 170.059 25.492 171.067 25.492C171.967 25.492 172.735 26.104 172.783 27.364H168.991ZM174.916 31H175.708L176.008 27.1C176.032 26.776 176.008 26.056 176.008 26.056H176.032C176.032 26.056 176.2 26.488 176.428 26.956L178.096 30.304H178.84L180.52 26.932C180.772 26.44 180.904 26.056 180.904 26.056H180.928C180.928 26.056 180.916 26.776 180.928 27.1L181.228 31H182.032L181.528 24.964H180.676L178.852 28.684C178.672 29.068 178.48 29.536 178.48 29.536H178.456C178.456 29.536 178.252 29.056 178.084 28.684L176.272 24.964H175.408L174.916 31ZM186.745 31H189.049C190.405 31 191.233 30.352 191.233 29.308C191.233 28.6 190.789 28.012 190.009 27.856V27.832C190.597 27.616 190.921 27.124 190.921 26.5C190.921 25.504 190.153 24.964 188.929 24.964H186.745V31ZM187.561 27.58V25.588H188.797C189.649 25.588 190.081 25.9 190.081 26.548C190.081 27.196 189.661 27.58 188.845 27.58H187.561ZM187.561 30.364V28.204H188.929C189.865 28.204 190.393 28.588 190.393 29.296C190.393 29.944 189.937 30.364 188.941 30.364H187.561ZM196.021 31H196.849V27.148H198.421C198.601 29.428 200.377 31.144 202.561 31.144C204.889 31.144 206.749 29.2 206.749 26.716C206.749 24.304 204.889 22.42 202.561 22.42C200.341 22.42 198.541 24.148 198.397 26.404H196.849V22.564H196.021V31ZM199.249 26.716C199.249 24.736 200.725 23.212 202.561 23.212C204.397 23.212 205.885 24.736 205.885 26.716C205.885 28.768 204.397 30.364 202.561 30.364C200.725 30.364 199.249 28.768 199.249 26.716ZM207.934 26.524C207.934 28.696 209.542 30.052 211.906 30.052V31.144H212.746V30.052C215.11 30.052 216.718 28.696 216.718 26.524C216.718 24.364 215.098 23.008 212.746 23.008V22H211.906V23.008C209.542 23.008 207.934 24.364 207.934 26.524ZM212.746 29.344V23.728C214.642 23.728 215.866 24.748 215.866 26.524C215.866 28.312 214.642 29.344 212.746 29.344ZM208.798 26.524C208.798 24.748 210.022 23.728 211.906 23.728V29.344C210.022 29.344 208.798 28.312 208.798 26.524ZM217.898 26.716C217.898 29.2 219.806 31.144 222.194 31.144C224.594 31.144 226.49 29.2 226.49 26.716C226.49 24.304 224.594 22.42 222.194 22.42C219.806 22.42 217.898 24.304 217.898 26.716ZM218.762 26.716C218.762 24.724 220.298 23.2 222.194 23.2C224.102 23.2 225.626 24.724 225.626 26.716C225.626 28.78 224.102 30.364 222.194 30.364C220.298 30.364 218.762 28.78 218.762 26.716Z" fill="white"/>
<defs>
<clipPath id="clip0_105_2">
<rect width="223" height="73" fill="white"/>
</clipPath>
</defs>
</svg>
