<svg width="49" height="49" viewBox="0 0 49 49" fill="none" xmlns="http://www.w3.org/2000/svg">
<path d="M40.0779 7.45206C39.8407 7.26019 39.5635 7.12391 39.2668 7.05325C38.97 6.98259 38.6611 6.97933 38.3629 7.04373C36.1813 7.50095 33.9291 7.50677 31.7451 7.06085C29.5611 6.61492 27.4915 5.72668 25.6638 4.45081C25.322 4.21372 24.916 4.08667 24.5 4.08667C24.084 4.08667 23.678 4.21372 23.3363 4.45081C21.5085 5.72668 19.4389 6.61492 17.2549 7.06085C15.0709 7.50677 12.8187 7.50095 10.6371 7.04373C10.3389 6.97933 10.03 6.98259 9.73324 7.05325C9.43645 7.12391 9.15928 7.26019 8.92208 7.45206C8.68521 7.64422 8.4944 7.88701 8.36367 8.16259C8.23295 8.43818 8.16563 8.73955 8.16667 9.04456V24.255C8.16485 27.1822 8.86241 30.0675 10.2013 32.6706C11.5401 35.2738 13.4815 37.5193 15.8638 39.2204L23.3158 44.5287C23.6616 44.7749 24.0755 44.9072 24.5 44.9072C24.9245 44.9072 25.3384 44.7749 25.6842 44.5287L33.1363 39.2204C35.5185 37.5193 37.4599 35.2738 38.7987 32.6706C40.1376 30.0675 40.8352 27.1822 40.8333 24.255V9.04456C40.8344 8.73955 40.7671 8.43818 40.6363 8.16259C40.5056 7.88701 40.3148 7.64422 40.0779 7.45206ZM36.75 24.255C36.7516 26.5309 36.2095 28.7744 35.169 30.7986C34.1285 32.8228 32.6196 34.5692 30.7679 35.8925L24.5 40.3637L18.2321 35.8925C16.3804 34.5692 14.8715 32.8228 13.831 30.7986C12.7905 28.7744 12.2484 26.5309 12.25 24.255V11.3925C16.5302 11.7588 20.8169 10.7657 24.5 8.55456C28.1831 10.7657 32.4698 11.7588 36.75 11.3925V24.255ZM27.6442 19.5796L22.1521 25.0921L20.335 23.2546C19.9505 22.8701 19.4291 22.6541 18.8854 22.6541C18.3417 22.6541 17.8203 22.8701 17.4358 23.2546C17.0514 23.639 16.8354 24.1604 16.8354 24.7041C16.8354 25.2478 17.0514 25.7693 17.4358 26.1537L20.7025 29.4204C20.8923 29.6118 21.1181 29.7636 21.3669 29.8673C21.6157 29.971 21.8826 30.0243 22.1521 30.0243C22.4216 30.0243 22.6885 29.971 22.9373 29.8673C23.1861 29.7636 23.4119 29.6118 23.6017 29.4204L30.625 22.4583C31.0095 22.0739 31.2254 21.5524 31.2254 21.0087C31.2254 20.465 31.0095 19.9436 30.625 19.5591C30.2405 19.1747 29.7191 18.9587 29.1754 18.9587C28.6317 18.9587 28.1103 19.1747 27.7258 19.5591L27.6442 19.5796Z" fill="#00A3B4"/>
</svg>
